<?xml version="1.0" encoding="UTF-8"?>
<svg width="300" height="250" version="1.1" viewBox="0 0 300 250" xmlns="http://www.w3.org/2000/svg">
 <rect width="300" height="250" fill="#f0f2f5"/>
 <g transform="matrix(1.3 0 0 1.3 50 45)">
  <path d="m75 0c-41.25 0-75 33.75-75 75s33.75 75 75 75 75-33.75 75-75-33.75-75-75-75zm0 15c33.375 0 60 26.625 60 60s-26.625 60-60 60-60-26.625-60-60 26.625-60 60-60z" fill="#ccc"/>
  <path d="m75 37.5c-20.625 0-37.5 16.875-37.5 37.5s16.875 37.5 37.5 37.5 37.5-16.875 37.5-37.5-16.875-37.5-37.5-37.5zm0 15c12.375 0 22.5 10.125 22.5 22.5s-10.125 22.5-22.5 22.5-22.5-10.125-22.5-22.5 10.125-22.5 22.5-22.5z" fill="#ccc"/>
 </g>
 <text x="150" y="200" dominant-baseline="middle" fill="#999" font-family="Arial" font-size="16" text-anchor="middle">No Image Available</text>
</svg>
